<svg version="1" xmlns="http://www.w3.org/2000/svg" width="682.667" height="682.667" viewBox="0 0 512.000000 512.000000"><path d="M243 26c-30 2.3-57.8 10-85.5 23.5-12.4 6.1-35.6 20.5-38.4 23.9-1.2 1.4 1.5 4.5 21.3 25l22.7 23.5 7.7-5.1c15.7-10.2 36.2-18.5 57.2-22.9 14.4-3.1 45.4-3.3 60.5-.5 13.4 2.5 31.8 8.6 44 14.5 65.1 31.9 102.2 104.4 90 175.8-.9 4.8-1.7 9.3-2 10-.2.7-6.8-1.8-18.3-7.2-17.3-8-18.2-8.3-21.7-7.2-4.7 1.4-6.9 4.7-6.2 9.1 1.1 6.8 30.6 87.9 32.8 90.2 2.9 3.1 8.6 4.7 12.5 3.5 1.6-.5 21.4-7.7 43.9-16 30.6-11.3 41.6-15.8 43.3-17.7 2.3-2.7 3-8.1 1.3-11.3-.5-.9-7-4.5-14.4-8l-13.3-6.3 2.7-11c5.1-19.9 6.3-31.2 6.3-55.8.1-28.5-2.5-45.6-10.5-70.6-15.9-49.7-48.1-92.2-92.4-121.9-12.2-8.2-36.2-20.1-50.5-25-29.6-10.2-63.6-14.8-93-12.5zM50 160.9c-22.8 8.6-42.5 16.3-43.8 17-3.3 1.7-4.3 5.2-2.9 9.6 1.3 4.4 1.8 4.7 17 11.6 11.1 5 11.8 5.5 11.4 7.9-.3 1.4-1.5 7.9-2.7 14.5-3.1 16.1-3.4 48.3-.6 65 7.4 45.4 25.7 85.1 55.1 119.3 69.1 80.3 183.9 103.9 278 57 15.6-7.8 26.6-14.7 25.8-16.2-.5-.7-10.7-11.7-22.7-24.3l-22-23.1-8.5 4.3c-12.1 6-25.6 10.9-39.6 14.1-11.3 2.7-13.3 2.9-35 2.8-20 0-24.3-.3-33.1-2.2-50.9-11.1-93.3-44-115.4-89.7-9.2-18.9-14.2-37.1-16.1-59-1.4-14.6-.5-34.5 1.4-34.5.7 0 7.9 3.2 16.1 7 8.2 3.9 15.7 7 16.7 7s3.4-1.4 5.4-3.1c2.6-2.3 3.5-3.9 3.5-6.2 0-2.6-28.5-84-31.2-89-1.6-3-7-5.7-11.3-5.6-2.6.1-19 5.8-45.5 15.8z"/><path d="M168 150.7c-8.7 4.5-13.7 18.9-12.7 36.7.6 12.8 3.3 20.4 9.2 26.3 4.2 4.3 4.3 4.3 11.6 4.3 7.4.1 7.4.1 4.4 1.7-4.6 2.4-6.5 4.4-9.3 9.8-3.4 6.5-4.3 21.3-1.8 29.6 1.8 6.3 6.6 12.6 11 14.5l3.1 1.3-3.7.1c-7.9 0-14.4 10-17.3 26.4-4.2 24.4 1.2 52.6 11.4 59.3l3.4 2.3h93.1c104.3 0 98 .4 97.4-6.8-.2-2.7-.9-4-2.8-4.9-1.9-1-19-1.3-76.2-1.3H215l-1.4-2.3c-6.5-9.8-6.4-47.4 0-57.2l1.6-2.5h73.5c73.7 0 76.3-.1 78.5-3.4 1.4-2 .8-6.3-1-7.9-1.7-1.5-7.5-1.7-62.8-1.7-41.4 0-62.2-.4-64.9-1.1-9.1-2.5-14-12.4-14-27.9.1-10.5 2.1-16.9 7.3-22.4 5.3-5.7 4.7-5.6 60.9-5.6 57.2 0 56.3.1 56.3-6 0-6.2 3.1-6-78.6-6h-74.2l-2.5-2.9c-7.5-9-5.6-37.1 2.9-40.9 1.8-.9 22.5-1.2 75.8-1.2 69.7 0 73.4-.1 74.9-1.8 2.1-2.3 2.2-5.6.1-7.6-1.4-1.4-9.5-1.6-74.7-1.6-40.3 0-79.5-.3-87.2-.6-12.3-.5-14.4-.3-17.5 1.3z"/></svg>