<svg width="512" height="512" viewBox="0 0 512 512" fill="none" xmlns="http://www.w3.org/2000/svg">
<path d="M310.627 438.627L470.627 278.627C483.124 266.131 483.124 245.869 470.627 233.372L310.627 73.372C298.13 60.876 277.869 60.876 265.372 73.372C252.875 85.868 252.875 106.13 265.372 118.627L370.745 224H64C46.327 224 32 238.327 32 256C32 273.673 46.327 288 64 288H370.745L265.372 393.373C259.124 399.621 256 407.811 256 416C256 424.189 259.124 432.379 265.372 438.627C277.869 451.124 298.13 451.124 310.627 438.627Z" fill="#E23939"/>
</svg>
